# xmcd
#
# Track frame offsets:
#	150
#	29719
#	67669
#	102035
#	133259
#	163685
#	199933
#	222841
#	254383
#	282078
#
# Disc length: 4059 seconds
#
# Revision: 131072
# Processed by: cddbd v1.5.2PL0 Copyright (c) Steve Scherf et al.
# Submitted via: EZCDAudioConverter 8.5.0.1
#
DISCID=920fd90a
DTITLE=V/A - 80s Pop 2/3
DYEAR=2016
DGENRE=
TTITLE0=Simple Minds - Don't You (Forget About Me) [12" Version]
TTITLE1=A-Ha - The Sun Always Shines On T.V. [Extended Version]
TTITLE2=Howard Jones - Like To Get To Know You Well [International Mix]
TTITLE3=Talk Talk - Life's What You Make It [Extended Mix]
TTITLE4=Simply Red - Come To My Aid [Survival Mix]
TTITLE5=The Communards - You Are My World [12" Remix]
TTITLE6=Laura Branigan - Self Control [Extended Version]
TTITLE7=Yes - Owner Of A Lonely Heart [Extended Remix]
TTITLE8=Tina Turner - We Don't Need Another Hero (Thunderdome) [Extended Versi
TTITLE8=on]
TTITLE9=Peter Cetera - Glory Of Love (Theme From Karate Kid) [Extended Version
TTITLE9=]
EXTD=
EXTT0=
EXTT1=
EXTT2=
EXTT3=
EXTT4=
EXTT5=
EXTT6=
EXTT7=
EXTT8=
EXTT9=
PLAYORDER=
